<?xml version="1.0" encoding="utf-8"?>
<!-- Generator: Adobe Illustrator 19.2.1, SVG Export Plug-In . SVG Version: 6.00 Build 0)  -->
<svg version="1.0" id="Layer_1" xmlns="http://www.w3.org/2000/svg" xmlns:xlink="http://www.w3.org/1999/xlink" x="0px" y="0px"
	 viewBox="0 0 128 128" style="enable-background:new 0 0 128 128;" xml:space="preserve">
<style type="text/css">
	.st0{fill:none;stroke:#662D91;stroke-width:2;stroke-miterlimit:10;}
</style>
<polygon class="st0" points="68,72.5 60,80 28,80 36,88 56,88 40,104 24,104 12,116 48,116 64,100 124,100 112,88 72,88 80,80 
	112,80 120,72 80,72 84,68 100,68 104,64 100,60 84,60 80,56 120,56 112,48 80,48 72,40 112,40 124,28 64,28 48,12 12,12 24,24 
	40,24 56,40 36,40 28,48 60,48 68,55.5 60,64 "/>
<polygon class="st0" points="56,56 48,64 56,72 36,72 28,64 36,56 "/>
</svg>
