<?xml version="1.0" encoding="utf-8"?>
<!-- Generator: Adobe Illustrator 19.2.1, SVG Export Plug-In . SVG Version: 6.00 Build 0)  -->
<svg version="1.0" id="Layer_1" xmlns="http://www.w3.org/2000/svg" xmlns:xlink="http://www.w3.org/1999/xlink" x="0px" y="0px"
	 viewBox="0 0 128 128" style="enable-background:new 0 0 128 128;" xml:space="preserve">
<style type="text/css">
	.st0{fill:none;stroke:#39B54A;stroke-width:2;stroke-miterlimit:10;}
</style>
<path class="st0" d="M124.5,61.5c0,32.0325165-25.9674835,58-58,58c-27.8682899,0-50.4599991-22.591713-50.4599991-50.4599991
	c0-24.2454109,19.654789-43.9001999,43.9001999-43.9001999c21.0935059,0,38.1931763,17.0996685,38.1931763,38.1931763
	c0,18.3513527-14.8767166,33.2280617-33.2280655,33.2280617c-15.9656754,0-28.9084129-12.9427338-28.9084129-28.9084167
	c0-13.8901329,11.2601814-25.1503143,25.150322-25.1503143c12.0844154,0,21.8807793,9.7963562,21.8807793,21.8807755
	c0,10.513443-8.5228348,19.0362778-19.0362816,19.0362778c-9.1466942,0-16.5615578-7.4148636-16.5615578-16.5615616
	c0-7.9576263,6.4509315-14.4085579,14.4085579-14.4085579c6.9231377,0,12.5354424,5.6123123,12.5354424,12.5354424
	c0,6.0231323-4.8827057,10.905838-10.9058342,10.905838c-5.2401237,0-9.4880791-4.2479553-9.4880791-9.4880753
	c0-4.5589066,3.6957207-8.2546272,8.2546272-8.2546272c3.9662514,0,7.18153,3.2152786,7.18153,7.1815224
	c0,3.4506378-2.7972946,6.2479324-6.2479324,6.2479324c-3.0020523,0-5.4356956-2.4336472-5.4356956-5.4356995
	c0-2.6117859,2.1172714-4.7290573,4.7290573-4.7290573c2.2722511,0,4.1142769,1.8420258,4.1142769,4.1142807
	c0,1.97686-1.602562,3.579422-3.579422,3.579422c-1.7198677,0-3.1140976-1.3942261-3.1140976-3.1140976
	c0-1.4962845,1.2129784-2.7092667,2.7092667-2.7092667c1.3017654,0,2.3570557,1.0552902,2.3570557,2.3570633
	c0,1.1325378-0.9180984,2.0506439-2.0506401,2.0506439c-0.9853096,0-1.7840576-0.7987518-1.7840576-1.7840576
	c0-0.8572235,0.694912-1.5521317,1.5521317-1.5521317c0.7457809,0,1.3503532,0.6045685,1.3503532,1.3503494
	c0,0.6488342-0.5259781,1.1748123-1.1748085,1.1748123"/>
<circle class="st0" cx="64" cy="64" r="60"/>
</svg>
