<?xml version="1.0" encoding="utf-8"?>
<!-- Generator: Adobe Illustrator 19.2.1, SVG Export Plug-In . SVG Version: 6.00 Build 0)  -->
<svg version="1.0" id="Layer_1" xmlns="http://www.w3.org/2000/svg" xmlns:xlink="http://www.w3.org/1999/xlink" x="0px" y="0px"
	 viewBox="0 0 64 64" style="enable-background:new 0 0 64 64;" xml:space="preserve">
<style type="text/css">
	.st0{fill:none;stroke:#F2F2F2;stroke-width:2;stroke-miterlimit:10;}
</style>
<polygon class="st0" points="8,52 16,60 56,60 48,52 28,52 24,48 56,48 52,44 44,44 40,40 24,40 20,36 28,36 32,32 28,28 20,28 
	24,24 40,24 44,20 52,20 56,16 24,16 28,12 48,12 56,4 16,4 8,12 12,16 4,24 12,24 8,28 8,36 12,40 4,40 12,48 "/>
</svg>
